HIERARCHY
ROOT hip
{
  OFFSET 0 0 0
  CHANNELS 6 Xposition Yposition Zposition Zrotation Yrotation Xrotation
  JOINT abdomen
  {
    OFFSET 0 20.6881 -0.73152
    CHANNELS 3 Zrotation Xrotation Yrotation
    JOINT chest
    {
      OFFSET 0 11.7043 -0.48768
      CHANNELS 3 Zrotation Xrotation Yrotation
      JOINT neck
      {
        OFFSET 0 22.1894 -2.19456
        CHANNELS 3 Zrotation Xrotation Yrotation
        JOINT head
        {
          OFFSET -0.24384 7.07133 1.2192
          CHANNELS 3 Zrotation Xrotation Yrotation
          JOINT leftEye
          {
            OFFSET 4.14528 8.04674 8.04672
            CHANNELS 3 Zrotation Xrotation Yrotation
            End Site
            {
              OFFSET 1 0 0
            }
          }
          JOINT rightEye
          {
            OFFSET -3.6576 8.04674 8.04672
            CHANNELS 3 Zrotation Xrotation Yrotation
            End Site
            {
              OFFSET 1 0 0
            }
          }
        }
      }
      JOINT rCollar
      {
        OFFSET -2.68224 19.2634 -4.8768
        CHANNELS 3 Zrotation Xrotation Yrotation
        JOINT rShldr
        {
          OFFSET -8.77824 -1.95073 1.46304
          CHANNELS 3 Zrotation Xrotation Yrotation
          JOINT rForeArm
          {
            OFFSET -28.1742 -1.7115 0.48768
            CHANNELS 3 Zrotation Xrotation Yrotation
            JOINT rHand
            {
              OFFSET -22.5879 0.773209 7.07136
              CHANNELS 3 Zrotation Xrotation Yrotation
              JOINT rThumb1
              {
                OFFSET -1.2192 -0.487915 3.41376
                CHANNELS 3 Zrotation Xrotation Yrotation
                JOINT rThumb2
                {
                  OFFSET -3.37035 -0.52449 3.41376
                  CHANNELS 3 Zrotation Xrotation Yrotation
                  End Site
                  {
                    OFFSET -1.78271 -1.18214 1.43049
                  }
                }
              }
              JOINT rIndex1
              {
                OFFSET -7.75947 0.938293 5.60832
                CHANNELS 3 Zrotation Xrotation Yrotation
                JOINT rIndex2
                {
                  OFFSET -2.54057 -0.884171 1.56538
                  CHANNELS 3 Zrotation Xrotation Yrotation
                  End Site
                  {
                    OFFSET -1.62519 -0.234802 1.16502
                  }
                }
              }
              JOINT rMid1
              {
                OFFSET -8.24714 1.18213 3.41376
                CHANNELS 3 Zrotation Xrotation Yrotation
                JOINT rMid2
                {
                  OFFSET -3.10165 -0.590103 1.0647
                  CHANNELS 3 Zrotation Xrotation Yrotation
                  End Site
                  {
                    OFFSET -2.48547 -0.328903 0.83742
                  }
                }
              }
              JOINT rRing1
              {
                OFFSET -8.82822 0.546677 1.51678
                CHANNELS 3 Zrotation Xrotation Yrotation
                JOINT rRing2
                {
                  OFFSET -2.60934 -0.819778 -0.0198488
                  CHANNELS 3 Zrotation Xrotation Yrotation
                  End Site
                  {
                    OFFSET -2.33842 -0.294052 0.168128
                  }
                }
              }
              JOINT rPinky1
              {
                OFFSET -8.27202 -0.0477905 -0.4584
                CHANNELS 3 Zrotation Xrotation Yrotation
                JOINT rPinky2
                {
                  OFFSET -1.82734 -0.647385 -0.700984
                  CHANNELS 3 Zrotation Xrotation Yrotation
                  End Site
                  {
                    OFFSET -1.69225 -0.51767 -0.607171
                  }
                }
              }
            }
          }
        }
      }
      JOINT lCollar
      {
        OFFSET 2.68224 19.2634 -4.8768
        CHANNELS 3 Zrotation Xrotation Yrotation
        JOINT lShldr
        {
          OFFSET 8.77824 -1.95073 1.46304
          CHANNELS 3 Zrotation Xrotation Yrotation
          JOINT lForeArm
          {
            OFFSET 28.1742 -1.7115 0.48768
            CHANNELS 3 Zrotation Xrotation Yrotation
            JOINT lHand
            {
              OFFSET 22.5879 0.773209 7.07136
              CHANNELS 3 Zrotation Xrotation Yrotation
              JOINT lThumb1
              {
                OFFSET 1.2192 -0.487915 3.41376
                CHANNELS 3 Zrotation Xrotation Yrotation
                JOINT lThumb2
                {
                  OFFSET 3.37035 -0.52449 3.41376
                  CHANNELS 3 Zrotation Xrotation Yrotation
                  End Site
                  {
                    OFFSET 1.78271 -1.18214 1.43049
                  }
                }
              }
              JOINT lIndex1
              {
                OFFSET 7.75947 0.938293 5.60832
                CHANNELS 3 Zrotation Xrotation Yrotation
                JOINT lIndex2
                {
                  OFFSET 2.54057 -0.884171 1.56538
                  CHANNELS 3 Zrotation Xrotation Yrotation
                  End Site
                  {
                    OFFSET 1.62519 -0.234802 1.16502
                  }
                }
              }
              JOINT lMid1
              {
                OFFSET 8.24714 1.18213 3.41376
                CHANNELS 3 Zrotation Xrotation Yrotation
                JOINT lMid2
                {
                  OFFSET 3.10165 -0.590103 1.0647
                  CHANNELS 3 Zrotation Xrotation Yrotation
                  End Site
                  {
                    OFFSET 2.48547 -0.328903 0.83742
                  }
                }
              }
              JOINT lRing1
              {
                OFFSET 8.82822 0.546677 1.51678
                CHANNELS 3 Zrotation Xrotation Yrotation
                JOINT lRing2
                {
                  OFFSET 2.60934 -0.819778 -0.0198488
                  CHANNELS 3 Zrotation Xrotation Yrotation
                  End Site
                  {
                    OFFSET 2.33842 -0.294052 0.168128
                  }
                }
              }
              JOINT lPinky1
              {
                OFFSET 8.27202 -0.0477905 -0.4584
                CHANNELS 3 Zrotation Xrotation Yrotation
                JOINT lPinky2
                {
                  OFFSET 1.82734 -0.647385 -0.700984
                  CHANNELS 3 Zrotation Xrotation Yrotation
                  End Site
                  {
                    OFFSET 1.69225 -0.51767 -0.607171
                  }
                }
              }
            }
          }
        }
      }
    }
  }
  JOINT rButtock
  {
    OFFSET -8.77824 4.35084 1.2192
    CHANNELS 3 Zrotation Xrotation Yrotation
    JOINT rThigh
    {
      OFFSET 0 -1.70687 -2.19456
      CHANNELS 3 Zrotation Xrotation Yrotation
      JOINT rShin
      {
        OFFSET 0 -36.8199 0.73152
        CHANNELS 3 Zrotation Xrotation Yrotation
        JOINT rFoot
        {
          OFFSET 0.73152 -45.1104 -5.12064
          CHANNELS 3 Zrotation Xrotation Yrotation
          End Site
          {
            OFFSET -1.1221 -3.69964 12.103
          }
        }
      }
    }
  }
  JOINT lButtock
  {
    OFFSET 8.77824 4.35084 1.2192
    CHANNELS 3 Zrotation Xrotation Yrotation
    JOINT lThigh
    {
      OFFSET 0 -1.70687 -2.19456
      CHANNELS 3 Zrotation Xrotation Yrotation
      JOINT lShin
      {
        OFFSET 0 -36.8199 0.73152
        CHANNELS 3 Zrotation Xrotation Yrotation
        JOINT lFoot
        {
          OFFSET -0.73152 -45.1104 -5.12064
          CHANNELS 3 Zrotation Xrotation Yrotation
          End Site
          {
            OFFSET 1.1221 -3.69964 12.103
          }
        }
      }
    }
  }
}
MOTION
Frames:	7
Frame Time:	0.00833333
2.10569 83.2634 5.01187 -0.811 -1.587 -1.2741 -4.99932 14.0891 4.50153 -0.609823 -11.2443 0.910467 -14.5755 2.59528 -12.0939 27.1076 -5.78934 -19.4466 -0.0 0.0 0.0 -0.0 0.0 0.0 9.05206e-15 -7.65257e-14 -5.39203e-14 -1.0665 21.7231 78.6593 -23.2712 -17.7943 47.3803 -0.735386 23.5963 3.5196 3.44338e-10 1.75554e-09 8.94995e-10 6.12393e-10 3.06209e-09 1.54184e-09 3.44347e-10 1.75554e-09 8.94986e-10 7.73091 5.47488 0.417314 3.44338e-10 1.75554e-09 8.94999e-10 2.90554 0.965183 0.102902 3.44346e-10 1.75554e-09 8.95001e-10 10.2786 0.731801 0.0259123 3.44336e-10 1.75554e-09 8.95014e-10 2.22167 -0.733487 -0.20892 8.93862e-15 -7.65399e-14 -5.41688e-14 -76.8351 52.5319 -0.898464 11.7616 -5.28282 -21.1494 0.0185874 -3.88922 0.547443 1.32116e-09 1.59705e-10 -9.8289e-10 2.28467e-09 2.77799e-10 -1.69665e-09 1.32115e-09 1.59701e-10 -9.8288e-10 -7.73091 5.47488 -0.417314 1.32116e-09 1.59701e-10 -9.82887e-10 -2.90554 0.965183 -0.102902 1.32115e-09 1.59698e-10 -9.82885e-10 -10.2786 0.731801 -0.0259123 1.32116e-09 1.59701e-10 -9.8289e-10 -2.22167 -0.733487 0.20892 -2.03217e-16 0.0 -3.88251e-19 -2.67596 -6.87989 12.0008 -0.146708 21.7271 0.414651 -3.42042 -8.43623 -12.2992 2.03217e-16 0.0 3.88251e-19 0.340455 -8.33396 -10.437 -0.0200247 24.9492 -0.405933 2.57824 -11.1051 9.64517
2.10015 83.2679 4.96009 -0.9248 -1.4884 -1.1929 -4.89089 14.0627 4.37934 -0.602816 -11.3117 0.88061 -14.5497 2.58019 -12.0647 26.9465 -5.71175 -19.4112 -0.0 0.0 0.0 -0.0 0.0 0.0 1.92259e-16 -5.25618e-14 -5.57156e-14 1.04978 21.2509 77.6338 -23.3009 -17.8454 47.4679 -0.675407 22.7112 3.37134 2.57959e-10 1.0652e-09 4.97517e-10 4.55863e-10 1.85603e-09 8.56572e-10 2.57967e-10 1.0652e-09 4.97509e-10 7.73091 5.47488 0.417314 2.57958e-10 1.0652e-09 4.9752e-10 2.90554 0.965183 0.102902 2.57967e-10 1.0652e-09 4.97524e-10 10.2786 0.731801 0.0259123 2.57958e-10 1.0652e-09 4.97538e-10 2.22167 -0.733487 -0.20892 7.64769e-17 -5.25716e-14 -5.59944e-14 -77.0587 52.4686 -0.62507 11.7602 -5.28184 -21.1466 0.0204373 -4.07657 0.573904 8.12475e-10 1.8684e-10 -4.2038e-10 1.40431e-09 3.23998e-10 -7.24441e-10 8.12465e-10 1.86837e-10 -4.20368e-10 -7.73091 5.47488 -0.417314 8.12479e-10 1.86837e-10 -4.20376e-10 -2.90554 0.965183 -0.102902 8.12467e-10 1.86834e-10 -4.20376e-10 -10.2786 0.731801 -0.0259123 8.12477e-10 1.86837e-10 -4.2038e-10 -2.22167 -0.733487 0.20892 -2.03217e-16 0.0 -3.88251e-19 -2.64932 -6.90828 12.0293 -0.146529 21.6819 0.413851 -3.44727 -8.39907 -12.4406 2.03217e-16 0.0 3.88251e-19 0.364501 -8.43187 -10.4434 -0.0198417 24.9373 -0.404275 2.54787 -11.0579 9.54507
2.12713 83.2772 4.94019 -0.8823 -1.3938 -1.1411 -4.78591 14.0049 4.26667 -0.630682 -11.3608 0.850315 -14.5037 2.59923 -12.0315 26.7751 -5.65666 -19.3755 -0.0 0.0 0.0 -0.0 0.0 0.0 -1.57736e-14 -1.66971e-14 -5.37402e-14 3.25394 20.6914 76.5675 -23.3399 -17.9125 47.5836 -0.605523 21.5775 3.18529 1.54146e-10 5.37317e-11 -8.87448e-11 2.65859e-10 8.80611e-11 -1.54848e-10 1.54152e-10 5.37306e-11 -8.8752e-11 7.73091 5.47488 0.417314 1.54145e-10 5.37337e-11 -8.8743e-11 2.90554 0.965183 0.102902 1.54152e-10 5.37336e-11 -8.87373e-11 10.2786 0.731801 0.0259123 1.54145e-10 5.37331e-11 -8.87226e-11 2.22167 -0.733487 -0.20892 -1.59087e-14 -1.66997e-14 -5.40694e-14 -77.2697 52.3812 -0.337189 11.7575 -5.28001 -21.1415 0.0222437 -4.2552 0.599141 7.62322e-11 2.44492e-10 4.20258e-10 1.30035e-10 4.22488e-10 7.28277e-10 7.62252e-11 2.44491e-10 4.20275e-10 -7.73091 5.47488 -0.417314 7.62367e-11 2.44491e-10 4.20262e-10 -2.90554 0.965183 -0.102902 7.62249e-11 2.44488e-10 4.20263e-10 -10.2786 0.731801 -0.0259123 7.62352e-11 2.44491e-10 4.20259e-10 -2.22167 -0.733487 0.20892 -2.03217e-16 0.0 -3.88251e-19 -2.65362 -6.93113 12.0416 -0.146311 21.628 0.412866 -3.47103 -8.34712 -12.5828 2.03217e-16 0.0 3.88251e-19 0.361287 -8.5171 -10.4482 -0.0199009 24.9069 -0.40218 2.51855 -10.9962 9.45375
2.16329 83.286 4.92529 -0.8048 -1.2938 -1.067 -4.68987 13.934 4.16027 -0.670384 -11.3942 0.820458 -14.4493 2.6171 -11.996 26.5965 -5.59059 -19.3392 -0.0 0.0 0.0 -0.0 0.0 0.0 -3.17562e-14 1.65335e-14 -4.76679e-14 5.50978 20.055 75.498 -23.381 -17.9836 47.7067 -0.533968 20.312 2.98163 5.19151e-11 -9.22944e-10 -6.45079e-10 7.91244e-11 -1.61895e-09 -1.11479e-09 5.19191e-11 -9.22945e-10 -6.45085e-10 7.73091 5.47488 0.417314 5.19126e-11 -9.22941e-10 -6.45078e-10 2.90554 0.965183 0.102902 5.19201e-11 -9.22941e-10 -6.45071e-10 10.2786 0.731801 0.0259123 5.19134e-11 -9.22941e-10 -6.45056e-10 2.22167 -0.733487 -0.20892 -3.19145e-14 1.65384e-14 -4.80445e-14 -77.4598 52.2693 -0.0641447 11.7505 -5.27521 -21.1281 0.0238026 -4.40249 0.61996 -6.21218e-10 2.97392e-10 1.20798e-09 -1.07707e-09 5.12783e-10 2.08941e-09 -6.21222e-10 2.97395e-10 1.208e-09 -7.73091 5.47488 -0.417314 -6.21213e-10 2.97393e-10 1.20798e-09 -2.90554 0.965183 -0.102902 -6.21224e-10 2.97391e-10 1.20798e-09 -10.2786 0.731801 -0.0259123 -6.21214e-10 2.97393e-10 1.20798e-09 -2.22167 -0.733487 0.20892 -2.03217e-16 0.0 -3.88251e-19 -2.67444 -6.94968 12.049 -0.14609 21.5714 0.411871 -3.49166 -8.29419 -12.7135 2.03217e-16 0.0 3.88251e-19 0.344455 -8.58675 -10.4492 -0.0201446 24.8633 -0.399929 2.49055 -10.9307 9.36959
2.19184 83.2976 4.92253 -0.8037 -1.2285 -1.0169 -4.6081 13.8681 4.05687 -0.698886 -11.4148 0.791918 -14.3983 2.59853 -11.9594 26.4137 -5.48001 -19.3016 -0.0 0.0 0.0 -0.0 0.0 0.0 -4.0666e-14 3.25954e-14 -3.71727e-14 7.78372 19.3583 74.4595 -23.4174 -18.0468 47.8162 -0.465888 19.0319 2.77876 -2.97175e-11 -1.50889e-09 -9.52773e-10 -6.75943e-11 -2.64212e-09 -1.64561e-09 -2.97147e-11 -1.50889e-09 -9.5278e-10 7.73091 5.47488 0.417314 -2.97207e-11 -1.50889e-09 -9.52773e-10 2.90554 0.965183 0.102902 -2.97137e-11 -1.50889e-09 -9.52765e-10 10.2786 0.731801 0.0259123 -2.97199e-11 -1.50889e-09 -9.52751e-10 2.22167 -0.733487 -0.20892 -4.08385e-14 3.26052e-14 -3.75703e-14 -77.6211 52.1332 0.165051 11.7362 -5.26534 -21.1003 0.0248541 -4.49582 0.63316 -1.01352e-09 3.10273e-10 1.61174e-09 -1.75593e-09 5.34397e-10 2.78685e-09 -1.01353e-09 3.10277e-10 1.61176e-09 -7.73091 5.47488 -0.417314 -1.01352e-09 3.10275e-10 1.61174e-09 -2.90554 0.965183 -0.102902 -1.01353e-09 3.10273e-10 1.61174e-09 -10.2786 0.731801 -0.0259123 -1.01352e-09 3.10275e-10 1.61174e-09 -2.22167 -0.733487 0.20892 -2.03217e-16 0.0 -3.88251e-19 -2.6973 -6.96514 12.0629 -0.145904 21.5182 0.411042 -3.50931 -8.25408 -12.8205 2.03217e-16 0.0 3.88251e-19 0.327652 -8.63793 -10.444 -0.0205165 24.8115 -0.3978 2.4641 -10.8718 9.29096
2.21583 83.312 4.93106 -0.7654 -1.2066 -0.9983 -4.54557 13.8074 3.95454 -0.710808 -11.4168 0.76452 -14.3508 2.52326 -11.9211 26.2223 -5.3042 -19.2618 -0.0 0.0 0.0 -0.0 0.0 0.0 -3.96382e-14 2.0354e-14 -1.69973e-14 10.094 18.604 73.4598 -23.4474 -18.0991 47.9064 -0.405026 17.7895 2.58466 -7.51582e-11 -1.46521e-09 -8.72155e-10 -1.45053e-10 -2.56418e-09 -1.50635e-09 -7.51556e-11 -1.46521e-09 -8.72163e-10 7.73091 5.47488 0.417314 -7.5162e-11 -1.46521e-09 -8.72155e-10 2.90554 0.965183 0.102902 -7.51556e-11 -1.46521e-09 -8.72148e-10 10.2786 0.731801 0.0259123 -7.5162e-11 -1.4652e-09 -8.72136e-10 2.22167 -0.733487 -0.20892 -3.98162e-14 2.0365e-14 -1.73762e-14 -77.7479 51.9506 0.3427 11.7103 -5.24761 -21.0505 0.0250928 -4.51465 0.635824 -9.09681e-10 2.66974e-10 1.40322e-09 -1.57587e-09 4.59691e-10 2.42591e-09 -9.09682e-10 2.66979e-10 1.40324e-09 -7.73091 5.47488 -0.417314 -9.09678e-10 2.66977e-10 1.40322e-09 -2.90554 0.965183 -0.102902 -9.09687e-10 2.66975e-10 1.40322e-09 -10.2786 0.731801 -0.0259123 -9.09676e-10 2.66977e-10 1.40321e-09 -2.22167 -0.733487 0.20892 -2.03217e-16 0.0 -3.88251e-19 -2.72231 -6.97884 12.0885 -0.145702 21.4684 0.410405 -3.52357 -8.22885 -12.8989 2.03217e-16 0.0 3.88251e-19 0.311857 -8.66877 -10.4257 -0.0210398 24.7506 -0.395848 2.43819 -10.8208 9.21393
2.23026 83.3223 4.93232 -0.7613 -1.1834 -0.9388 -4.49824 13.7436 3.85537 -0.718136 -11.4009 0.737941 -14.3014 2.4137 -11.8807 26.0224 -5.08491 -19.2205 -0.0 0.0 0.0 -0.0 0.0 0.0 -3.27786e-14 -1.00194e-14 1.09611e-14 12.4454 17.7831 72.4898 -23.4747 -18.1469 47.9885 -0.348974 16.5153 2.38859 -9.80565e-11 -1.02972e-09 -5.46986e-10 -1.79332e-10 -1.80108e-09 -9.45153e-10 -9.80535e-11 -1.02971e-09 -5.46998e-10 7.73091 5.47488 0.417314 -9.8061e-11 -1.02971e-09 -5.46986e-10 2.90554 0.965183 0.102902 -9.80551e-11 -1.02971e-09 -5.46982e-10 10.2786 0.731801 0.0259123 -9.80624e-11 -1.02971e-09 -5.46973e-10 2.22167 -0.733487 -0.20892 -3.29592e-14 -1.0009e-14 1.06257e-14 -77.8456 51.7292 0.484105 11.6757 -5.22386 -20.9838 0.0246561 -4.47586 0.630338 -4.91735e-10 1.88558e-10 8.05658e-10 -8.52038e-10 3.24762e-10 1.39242e-09 -4.91736e-10 1.88563e-10 8.05669e-10 -7.73091 5.47488 -0.417314 -4.91736e-10 1.88562e-10 8.05652e-10 -2.90554 0.965183 -0.102902 -4.91742e-10 1.88561e-10 8.05651e-10 -10.2786 0.731801 -0.0259123 -4.9173e-10 1.88561e-10 8.05648e-10 -2.22167 -0.733487 0.20892 -2.03217e-16 0.0 -3.88251e-19 -2.75586 -6.98977 12.119 -0.145484 21.4193 0.409873 -3.53463 -8.21169 -12.9559 2.03217e-16 0.0 3.88251e-19 0.290689 -8.68119 -10.3977 -0.0217297 24.6786 -0.393933 2.41303 -10.7726 9.14053
